<svg width="38" height="48" viewBox="0 0 38 48" fill="none" xmlns="http://www.w3.org/2000/svg">
<path d="M3.74 8.9375L5.225 15.2625L3.74 21.56L9.2675 24.97L12.65 30.4975L18.975 29.0125L25.3 30.4975L28.6825 24.97L34.21 21.56L32.725 15.2625L34.21 8.9375L28.71 5.5275L25.3 0L18.975 1.5125L12.6775 0.0275L9.24 5.5275L3.74 8.9375ZM19.0025 26.3725C16.0851 26.3725 13.2872 25.2136 11.2243 23.1507C9.16143 21.0878 8.0025 18.2899 8.0025 15.3725C8.0025 12.4551 9.16143 9.65723 11.2243 7.59433C13.2872 5.53142 16.0851 4.3725 19.0025 4.3725C25.0525 4.3725 29.975 9.295 29.975 15.345C29.975 21.45 25.0525 26.3725 19.0025 26.3725ZM18.9475 23.6225C14.3825 23.6225 10.725 19.9375 10.725 15.3725C10.725 10.835 14.3825 7.1225 18.9475 7.1225C23.5125 7.1225 27.225 10.835 27.225 15.3725C27.225 19.9375 23.5125 23.6225 18.9475 23.6225ZM29.5075 26.6475L25.9875 32.8075L20.2675 31.515L27.225 47.5475L31.075 41.4975H37.95L29.5075 26.6475ZM8.3325 26.84L11.77 33.0275L17.6275 31.625L10.725 47.5475L6.875 41.4975H0L8.3325 26.84Z" fill="#F5DB35"/>
</svg>
