<svg width="18" height="17" viewBox="0 0 18 17" fill="none" xmlns="http://www.w3.org/2000/svg">
<path d="M17.825 6.58704C17.825 6.32037 17.625 6.15599 17.225 6.09399L11.848 5.31201L9.43805 0.439087C9.30472 0.14642 9.12969 0 8.91302 0C8.69636 0 8.52133 0.14642 8.388 0.439087L5.97699 5.31201L0.600037 6.09399C0.200037 6.16066 0 6.32504 0 6.58704C0.0235957 6.78534 0.118924 6.9682 0.268005 7.10107L4.16803 10.8931L3.24701 16.248C3.23565 16.3192 3.22864 16.391 3.22601 16.463C3.22137 16.5984 3.26066 16.7318 3.33801 16.843C3.37665 16.8951 3.4278 16.9365 3.48669 16.9636C3.54559 16.9907 3.61038 17.0026 3.67505 16.998C3.82648 16.9918 3.97391 16.9478 4.104 16.87L8.91302 14.342L13.722 16.87C13.8515 16.9493 13.9993 16.9934 14.151 16.998C14.2141 17.0017 14.2772 16.9894 14.3344 16.9623C14.3915 16.9352 14.4409 16.8942 14.478 16.843C14.5551 16.7316 14.5943 16.5984 14.59 16.463C14.5911 16.3912 14.5874 16.3194 14.579 16.248L13.658 10.8931L17.546 7.10107C17.7024 6.97262 17.8025 6.78817 17.825 6.58704Z" fill="#6D80C5"/>
</svg>
